<svg xmlns="http://www.w3.org/2000/svg" width="138" height="408">
 <path
  fill="#18170b"
  d="m131 379-1 1h1l5 7c1 8-3 17-10 20a4 4 35 0 1-1 0H13c-5-2-7-4-9-9l-2-9c0-4 2-6 5-8a1 1 42 0 0 0-2q-3-2-4-6a3 3-54 0 1 0-1v-19c0-4 1-6 4-9q2-2 0-4v-1a2 2 16 0 0-1-1l-2-2a3 3 22 0 1-1-3v-20c0-4 1-6 4-8q2-1 1-4l-3-4-2-5v-20l1-3a3 3 82 0 1 1-1l3-4c0-3 0-4-2-5-2-3-3-4-3-8v-17c0-3 1-6 3-7a2 2-8 0 0 2-2q1-5-1-9l-4-17q-2-6-2-13v-74q0-9 3-16 4-9 10-16 14-20 36-34a4 4 76 0 0 2-3l-1-9-2-8V9c0-6 4-8 10-8h25q2 0 4 4l1 7v16a1 1-36 0 1 0 1l-3 8c0 3-1 8 2 9 21 13 39 32 48 56l1 6v85l-1 3-6 22v7a2 2-84 0 0 1 1q4 2 4 7v20q0 5-4 7a2 2-85 0 0-1 0c-1 2 0 4 2 6l2 2a4 4-68 0 1 1 3v16c0 5 1 9-3 12-3 2-3 5 0 7 2 1 3 4 3 7v20l-1 4a2 2-88 0 1-1 0l-2 2a1 1 78 0 0-1 1l1 4c2 2 4 4 4 7v22a3 3 68 0 1-1 2l-3 4Z"
 />
 <path fill="#cb0500" d="M85 19a1 1 14 0 1-1 1q-3-2-7 0h-6a6 6-47 0 0-2 0H59l-5-1a1 1-79 0 1-1-1V7a2 2-6 0 1 2-2h28a2 2 0 0 1 2 2v12ZM53 26v-1a1 1 37 0 1 1-1h30l2 1a1 1 17 0 1-1 2H54a1 1 38 0 1-1-1Z" />
 <path fill="#f5f7f1" d="m99 59-19-1H40l10-7c3-3 5-4 6-8v-6a1 1 89 0 1 1-1h24a1 1 90 0 1 1 1c0 4 0 6 2 9q0 2 3 3l12 10Z" />
 <path fill="#cb0500" d="M40 58h40l19 1 7 5 5 6q10 9 17 23 4 6 5 12l-9-1-3 1a7 6-52 0 1-2 0H5l2-8 3-3 1-4q9-15 24-28l5-4Z" />
 <path fill="#ff0000" d="M133 105v92l-10-2h-6l-10 1H6l-1-9v-82h114a7 6-52 0 0 2 0l3-1 9 1Z" />
 <path
  fill="#cb0500"
  d="m133 197-7 22v5c0 4 1 4 4 6a4 4 15 0 1 2 4v17l-1 4a1 1 11 0 1-1 1c-5 1-4 6-4 10a1 1 16 0 0 1 1l4 4a2 2 19 0 1 1 2v19a3 3 75 0 1-1 3l-5 2a1 1-15 0 0 0 1v7a2 2 21 0 0 1 2l3 2a4 4 13 0 1 2 3v21a2 2 75 0 1-1 1l-5 3a1 1 76 0 0 0 1v6a4 4 18 0 0 1 3l4 2a2 2-72 0 1 1 2v20a3 3 75 0 1-2 3l-3 2a1 1-10 0 0-1 1c-1 3 0 5 2 6 2 2 4 3 5 6a2 2 46 0 1 0 1l-2 7c-3 7-6 7-13 7H18l-6-1c-4-2-6-8-6-13v-3l5-5a2 2 81 0 0 1-1v-4a1 1 6 0 0-1-1c-3-1-5-2-5-6v-15l1-5 4-3a2 2-9 0 0 1-1v-6c0-4-2-4-5-6a2 2 14 0 1-1-1v-20a4 4 75 0 1 2-4l3-2a2 2-15 0 0 1-1v-7c0-4-4-3-6-5a2 2 29 0 1 0-2v-20a3 3 75 0 1 1-2l3-2a3 3 75 0 0 2-3v-5a3 3-75 0 0-1-3l-3-1a1 1-2 0 1-1-1l-1-3v-20a2 2-15 0 1 1-1l4-3a2 2-14 0 0 1-2l-1-10-5-20h101l10-1h6l10 2Z"
 />
 <path fill="#f5f7f1" d="M7 344v-4q2 2 0 4Z" />
 <path fill="#cb0500" d="M131 379v1h-1l1-1Z" />
</svg>

