<svg xmlns="http://www.w3.org/2000/svg" width="143" height="408">
 <path
  fill="#060400"
  d="M101 397c-2-1-5-2-7 0-3 4-5 9-11 9H58a3 3 69 0 1-3-1l-7-9a2 2-28 0 0-3 0q-2 0-3 2l-11 7q-11 5-20-3-2-2-3-7-5-15-7-32V220q0-8 4-21 3-11 9-20l1-4q3-11 2-21l-3-8q-5-9-6-17l-1-16q0-8 3-15 5-11 14-19l13-9q13-14 17-33a6 6 39 0 0-1-4l-2-4a3 3-51 0 1 0-2l1-19c0-4 1-7 5-7h28c4 0 6 2 6 6l1 18c1 5-4 7-3 13 2 9 6 18 11 25l11 11 9 7c13 11 18 28 15 45q-1 11-5 18l-3 8c-1 7-2 15 0 22l5 9c5 9 7 19 9 30l1 11v134l-2 15-5 23q-2 6-9 10c-10 4-17-3-25-9Z"
 />
 <path
  fill="#ffffff"
  d="M56 19a1 1-34 0 1-1-1V7a3 3 90 0 1 3-3h27a3 3 90 0 1 3 3v11a1 1-39 0 1-1 1H56ZM87 23a1 1 45 0 1 1 1v1a3 2 0 0 1-3 2H58a3 2 0 0 1-3-2v-1a1 1 39 0 1 1-1h31ZM88 31a1 1 0 0 1-1 1H55a1 1 0 0 1-1-1 1 1 0 0 1 1-1h32a1 1 0 0 1 1 1ZM89 48H54l3-12c0-2 1-2 3-2h24a2 2 87 0 1 2 2q0 6 3 12Z"
 />
 <path fill="#cb0500" d="M89 48q4 13 14 23l9 8q7 4 11 10c7 8 11 20 10 30l-1 7c-1 8-4 16-7 23-5 9-3 22 1 31l7 15q4 11 6 23H4l6-25 8-15a11 11 67 0 0 0-2l2-7 1-7q0-8-4-16l-6-20-1-11q1-13 7-23c5-7 11-12 18-16l8-8 7-10 2-5 2-5h35Z" />
 <path fill="#ff0000" d="M139 218v87l-4-1H5l-1-3v-83h135Z" />
 <path
  fill="#cb0500"
  d="m139 305-1 42-1 21q-1 11-4 21l-2 8a3 3 76 0 1-1 1q-5 6-11 6-4 0-8-4l-12-8-3-1a2 2-71 0 0-1 1l-6 7-6 4a3 3 32 0 1-1 0H64q-6 0-8-2a8 4 44 0 1-1-1l-5-6-1-2a3 3-35 0 0-5 0l-2 1c-5 3-9 8-15 10h-4c-5 0-7-1-10-4l-2-6-5-20-2-19v-46l1-4h130l4 1Z"
 />
</svg>

