<svg xmlns="http://www.w3.org/2000/svg" width="90" height="163">
 <path
  fill="#2b0f01"
  d="M45 1h32c4 0 5 1 7 4a3 3-36 0 1-1 3l-2 3a2 2 51 0 0 0 1l3 7 2 4c1 3 3 5 3 8v118a3 3 61 0 1-1 2l-1 7c-1 3-3 4-6 4H9c-3 0-5-1-6-4l-1-7a3 3-61 0 1-1-2V31c0-3 2-5 3-8l2-4 3-7a2 2-50 0 0 0-1L7 8a3 3 36 0 1-1-3c2-3 3-4 7-4h32Z"
 />
 <path fill="#d9d9d9" d="M80 6a2 2 0 0 1-2 2H12a2 2 0 0 1-2-2 2 2 0 0 1 2-2h66a2 2 0 0 1 2 2Z" />
 <path
  fill="#fe0000"
  d="M79 17a1 1 0 0 1-2 1H12a1 1 0 0 1-1-1 1 1 0 0 1 1-2h65a1 1 0 0 1 2 2ZM8 23v-1a1 1-79 0 1 1 0l7-2h16a1 1-44 0 0 1 0h3a1 1 46 0 0 1 0h3a1 1-42 0 0 1 0l5 1 2-1a1 1-47 0 0 1 0h3a1 1-40 0 0 1 0h7l3 1h5l7-1c2 0 5 1 6 3a1 1 85 0 1-1 1l-1-1a2 2 56 0 0-1 0H8ZM84 151H6a2 2 89 0 1-2-2V31q0-4 4-5a3 3-52 0 1 1 0h68l6 1q3 1 3 5v113l-1 5a1 1 14 0 1-1 1Z"
 />
 <path fill="#d9d9d9" d="M84 157a2 2 0 0 1-2 2H8a2 2 0 0 1-2-2 2 2 0 0 1 2-2h74a2 2 0 0 1 2 2Z" />
</svg>

