<svg xmlns="http://www.w3.org/2000/svg" width="90" height="281">
 <path
  fill="#151209"
  d="M25 29V8l1-5a2 2 0 0 1 1-1l8-1h22c7 0 8 5 8 12v14l-1 4-2 5a2 2-42 0 0 0 2l5 4 10 4q10 7 11 19v46a4 4 36 0 0 0 1v39l1 19v31a1 1-29 0 1 0 1l-1 1v66q0 3-3 7c-4 6-10 4-16 2a4 4-17 0 1-1-1l-5-4a2 2 41 0 0-3 0l-5 6a3 3-68 0 1-3 1H37l-3-1-3-5a2 2-5 0 0-1-1l-3 1c-7 4-15 10-22 2-4-4-4-10-4-17V75l1-13q2-9 10-15l14-7c3-2 2-4 1-6l-2-4a1 1-73 0 0 0-1Z"
 />
 <path
  fill="#f1f2ef"
  d="M29 6a1 1-89 0 1 1-1h28a3 1-1 0 1 3 1v12a3 1-1 0 1-3 2H30a1 1-52 0 1-1-1V6ZM29 27a1 1 45 0 1-1-1v-1a3 1 0 0 1 2-1h29a3 1 0 0 1 2 1v1a1 1 90 0 1-1 1H29ZM32 31h2v1h-2v-1ZM49 32H35v-1h14v1ZM51 31h1l2 1h-2l-1-1ZM59 41H29l4-4a4 4 22 0 1 3-1h20a1 1-13 0 1 1 1l2 4Z"
 />
 <path fill="#cb0500" d="m59 41 7 4 10 4q5 4 7 10c2 4 2 7 2 11v27H5V67q0-8 5-14c3-5 8-7 14-8q3-1 5-4h30Z" />
 <path fill="#ff0000" d="M85 97v94a2 2-55 0 1-1 0H9l-4 1V97h80Z" />
 <path fill="#cb0500" d="M85 191v74c0 5-1 10-6 12a2 2 40 0 1-2 0c-5-1-10-5-15-7a2 1-38 0 0-1-1l-3 2-4 4a5 5-72 0 1-4 2H39a4 4 74 0 1-3-2c-2-2-3-5-6-5q-3-1-5 1-7 5-13 6a3 2 42 0 1-1 0q-4-1-5-4l-1-11v-70l4-1h75a2 2-55 0 0 1 0Z" />
</svg>

